<svg xmlns="http://www.w3.org/2000/svg" viewBox="0 0 256 256" width="512" height="512">
  <rect width="256" height="256" fill="#25D366" rx="60" />
  <path d="M128,24A104,104,0,0,0,36.18,176.88L24.83,210.93a16,16,0,0,0,19.92,19.94l33.8-11.27A104,104,0,1,0,128,24Zm0,192a87.87,87.87,0,0,1-44.53-12.18,8,8,0,0,0-7.39-.46L45.41,213.6l10.15-30.45a8,8,0,0,0-.44-7.32A88,88,0,1,1,128,216Zm41.13-58.85c-2.31-1.16-13.68-6.75-15.8-7.53s-3.66-1.16-5.21,1.16-6,7.54-7.35,9.08-2.67,1.73-5,.57a64.79,64.79,0,0,1-19.11-11.82,71.55,71.55,0,0,1-13.25-16.5c-1.35-2.32-.14-3.58,1-4.73s2.31-2.7,3.47-4.05a16.63,16.63,0,0,0,2.31-3.86,4,4,0,0,0-.2-3.86c-.58-1.16-5.22-12.56-7.14-17.2s-3.83-3.89-5.23-3.95-2.88-.08-4.43-.08a8.55,8.55,0,0,0-6.19,2.89c-2.12,2.32-8.12,7.92-8.12,19.33s8.33,22.46,9.49,24,16.27,25.68,39.95,35.26c19.14,7.74,25.63,6.37,30.27,5.77,5.55-.71,13.68-5.59,15.61-11s1.93-10,1.35-11S171.44,158.31,169.13,157.15Z" fill="#FFFFFF"/>
</svg>
